<?xml version="1.0" standalone="no"?>
<!DOCTYPE svg PUBLIC "-//W3C//DTD SVG 20010904//EN"
 "http://www.w3.org/TR/2001/REC-SVG-20010904/DTD/svg10.dtd">
<svg version="1.0" xmlns="http://www.w3.org/2000/svg" viewBox="0 0 550.000000 131.000000"
 preserveAspectRatio="xMidYMid meet" stroke-opacity="1" fill="#f4f3fe">

<g transform="translate(0.000000,131.000000) scale(0.100000,-0.100000)"> 
<path d="M0 1282 c0 -25 6 -30 39 -41 61 -18 125 -89 177 -195 24 -51 90 -230
145 -397 55 -169 122 -349 149 -405 80 -166 169 -244 276 -244 68 1 121 28
177 90 74 82 136 222 247 559 55 167 120 345 145 395 101 206 224 258 340 141
68 -67 132 -214 243 -550 54 -165 117 -338 140 -385 78 -162 158 -240 256
-248 72 -6 120 12 178 66 95 89 139 184 278 606 54 164 113 319 141 377 135
268 302 261 435 -19 21 -42 81 -211 135 -375 141 -428 210 -563 322 -627 110
-63 223 -28 316 99 58 80 110 207 213 516 54 165 119 342 144 393 135 279 303
278 440 -3 24 -49 88 -226 143 -391 142 -432 209 -561 322 -618 73 -36 99 -35
99 4 0 22 -5 30 -18 30 -31 0 -108 56 -140 102 -58 84 -95 174 -189 457 -52
157 -109 320 -125 361 -65 164 -140 268 -222 306 -64 30 -118 30 -182 0 -117
-54 -190 -191 -332 -621 -54 -165 -115 -335 -135 -378 -109 -236 -245 -291
-366 -149 -64 74 -117 199 -226 527 -142 430 -212 562 -326 619 -95 47 -175
31 -259 -54 -86 -85 -137 -196 -256 -558 -114 -346 -170 -474 -238 -545 -84
-87 -166 -88 -251 -3 -75 74 -118 171 -236 527 -103 310 -160 448 -220 530
-107 147 -239 170 -358 63 -97 -87 -145 -191 -286 -619 -51 -154 -111 -318
-134 -364 -135 -268 -297 -267 -430 3 -31 61 -90 221 -150 403 -55 167 -121
345 -146 398 -71 145 -173 244 -252 245 -19 0 -23 -6 -23 -28z"/>
</g>
</svg>

