<svg version="1.1" id="Layer_1" xmlns="http://www.w3.org/2000/svg" xmlns:xlink="http://www.w3.org/1999/xlink" x="0px" y="0px"
	 width="100%" viewBox="0 0 512 512" enable-background="new 0 0 512 512" xml:space="preserve">
<path fill="#6DA544" opacity="1.000000" stroke="none" 
	d="
M225.000000,0.999999 
	C246.020889,1.000000 267.041779,1.000000 288.413025,1.414140 
	C294.140869,2.879892 299.511749,3.967084 304.897064,4.977266 
	C336.815735,10.964593 366.456238,22.661736 393.971436,39.946297 
	C417.250854,54.570030 437.451019,72.735031 454.967133,93.711227 
	C469.708069,111.364021 481.818176,130.815918 491.120605,152.028473 
	C501.051544,174.674179 508.137665,198.003357 511.081696,222.576416 
	C511.186157,223.448380 512.336914,224.194977 513.000000,225.000000 
	C513.000000,246.020889 513.000000,267.041779 512.585938,288.412781 
	C511.785706,289.603973 511.191345,290.410889 511.046509,291.291687 
	C509.877869,298.398865 509.226837,305.620148 507.607208,312.619049 
	C501.330383,339.743225 491.387817,365.419495 476.962006,389.342987 
	C461.720184,414.619781 442.554718,436.566620 419.951874,455.308502 
	C401.737823,470.411316 381.681671,482.841736 359.742065,492.145050 
	C337.766144,501.463776 315.198486,508.340759 291.430756,511.082520 
	C290.558380,511.183197 289.807495,512.336975 289.000000,513.000000 
	C267.979095,513.000000 246.958206,513.000000 225.587875,512.586487 
	C224.397415,511.786560 223.590729,511.191650 222.709961,511.046631 
	C215.597488,509.875671 208.370621,509.222961 201.366638,507.600525 
	C173.748093,501.202850 147.667999,490.972870 123.388802,476.140747 
	C96.617050,459.785919 73.710632,439.087280 54.401527,414.553101 
	C41.204124,397.784454 30.239857,379.529938 21.856361,359.751038 
	C12.540529,337.772430 5.653792,315.203613 2.917680,291.431427 
	C2.817257,290.558929 1.663091,289.807739 1.000000,289.000000 
	C1.000000,267.645782 1.000000,246.291550 1.409610,224.592468 
	C2.873838,219.203690 4.015714,214.176178 4.968895,209.113144 
	C11.098203,176.556030 23.092167,146.377853 40.974018,118.449669 
	C55.353107,95.992157 72.959160,76.396492 93.303017,59.372139 
	C114.298561,41.802448 137.620560,27.851343 163.283203,18.046392 
	C182.611618,10.661563 202.401245,5.061480 223.067490,2.904741 
	C223.770248,2.831399 224.358414,1.659725 225.000000,0.999999 
M387.329437,197.172318 
	C345.763306,166.535461 304.155029,135.955353 262.696869,105.173073 
	C258.596191,102.128349 255.947067,101.720627 251.552002,104.977997 
	C188.520645,151.693100 125.319626,198.179291 62.164555,244.727509 
	C56.840256,248.651794 51.552620,252.625824 45.718987,256.970703 
	C47.758717,258.537201 49.277699,259.745911 50.839207,260.896942 
	C117.879784,310.313751 184.952011,359.687805 251.897705,409.232849 
	C255.850845,412.158447 258.359741,412.027344 262.213531,409.176331 
	C323.943726,363.507874 385.788666,317.994537 447.602783,272.439453 
	C454.385803,267.440582 461.139709,262.402130 468.464874,256.968262 
	C441.194000,236.874512 414.547302,217.240707 387.329437,197.172318 
z"/>
<path fill="#FEDA44" opacity="1.000000" stroke="none" 
	d="
M387.615051,197.389603 
	C414.547302,217.240707 441.194000,236.874512 468.464874,256.968262 
	C461.139709,262.402130 454.385803,267.440582 447.602783,272.439453 
	C385.788666,317.994537 323.943726,363.507874 262.213531,409.176331 
	C258.359741,412.027344 255.850845,412.158447 251.897705,409.232849 
	C184.952011,359.687805 117.879784,310.313751 50.839207,260.896942 
	C49.277699,259.745911 47.758717,258.537201 45.718987,256.970703 
	C51.552620,252.625824 56.840256,248.651794 62.164555,244.727509 
	C125.319626,198.179291 188.520645,151.693100 251.552002,104.977997 
	C255.947067,101.720627 258.596191,102.128349 262.696869,105.173073 
	C304.155029,135.955353 345.763306,166.535461 387.615051,197.389603 
M175.053696,222.153488 
	C170.345840,233.641388 167.550659,245.496704 168.032623,258.898926 
	C168.608902,318.442383 228.883438,360.810394 285.455902,341.341705 
	C303.883453,335.000092 319.068298,324.217560 330.293945,307.230560 
	C337.651306,297.172699 341.993408,285.840088 344.703217,272.776855 
	C344.696869,262.184479 346.195953,251.331757 344.417297,241.045853 
	C337.591309,201.571609 305.994202,172.906601 265.692780,168.265915 
	C228.273178,163.957062 191.169083,185.853378 175.053696,222.153488 
z"/>
<path fill="#0153B4" opacity="1.000000" stroke="none" 
	d="
M329.759186,307.621613 
	C319.068298,324.217560 303.883453,335.000092 285.455902,341.341705 
	C228.883438,360.810394 168.608902,318.442383 168.473877,258.407867 
	C201.953796,248.177200 234.587540,249.367371 266.768646,261.664062 
	C291.914642,271.272583 312.551361,287.108948 329.759186,307.621613 
z"/>
<path fill="#0253B4" opacity="1.000000" stroke="none" 
	d="
M175.300156,221.609451 
	C191.169083,185.853378 228.273178,163.957062 265.692780,168.265915 
	C305.994202,172.906601 337.591309,201.571609 344.417297,241.045853 
	C346.195953,251.331757 344.696869,262.184479 344.342346,273.012238 
	C343.101990,272.502869 342.174713,271.807251 341.349854,271.006226 
	C312.062653,242.564529 277.297272,225.349121 236.802292,219.680130 
	C216.164154,216.790924 195.710693,218.102127 175.300156,221.609451 
z"/>
<path fill="#EEEFEF" opacity="1.000000" stroke="none" 
	d="
M175.176926,221.881470 
	C195.710693,218.102127 216.164154,216.790924 236.802292,219.680130 
	C277.297272,225.349121 312.062653,242.564529 341.349854,271.006226 
	C342.174713,271.807251 343.101990,272.502869 344.222168,273.481689 
	C341.993408,285.840088 337.651306,297.172699 330.026550,307.426086 
	C312.551361,287.108948 291.914642,271.272583 266.768646,261.664062 
	C234.587540,249.367371 201.953796,248.177200 168.540710,257.962036 
	C167.550659,245.496704 170.345840,233.641388 175.176926,221.881470 
z"/>
</svg>